HIERARCHY
ROOT Hips
{
 OFFSET 0.000000 0.000000 0.000000
 CHANNELS 6 Xposition Yposition Zposition Yrotation Xrotation Zrotation
 JOINT Chest
 {
  OFFSET 0.000000 9.585900 0.002600
  CHANNELS 3 Yrotation Xrotation Zrotation
  JOINT Chest2
  {
   OFFSET 0.000000 9.601200 -0.005300
   CHANNELS 3 Yrotation Xrotation Zrotation
   JOINT Chest3
   {
    OFFSET 0.000000 9.561800 0.000000
    CHANNELS 3 Yrotation Xrotation Zrotation
    JOINT Chest4
    {
     OFFSET 0.000000 9.552100 0.000000
     CHANNELS 3 Yrotation Xrotation Zrotation
     JOINT Neck
     {
      OFFSET 0.000000 14.453000 0.000000
      CHANNELS 3 Yrotation Xrotation Zrotation
      JOINT Head
      {
       OFFSET 0.000000 8.936500 -0.011300
       CHANNELS 3 Yrotation Xrotation Zrotation
       End Site
       {
        OFFSET 0.000000 17.073600 -0.006000
       }
      }
     }
     JOINT RightCollar
     {
      OFFSET -2.921100 9.558500 0.000000
      CHANNELS 3 Yrotation Xrotation Zrotation
      JOINT RightShoulder
      {
       OFFSET -13.519700 0.000000 0.000000
       CHANNELS 3 Yrotation Xrotation Zrotation
       JOINT RightElbow
       {
        OFFSET 0.000000 -29.696600 0.000000
        CHANNELS 3 Yrotation Xrotation Zrotation
        JOINT RightWrist
        {
         OFFSET 0.000000 -24.004700 0.000000
         CHANNELS 3 Yrotation Xrotation Zrotation
         End Site
         {
          OFFSET 0.000000 -17.728500 0.000000
         }
        }
       }
      }
     }
     JOINT LeftCollar
     {
      OFFSET 2.921100 9.558500 0.000000
      CHANNELS 3 Yrotation Xrotation Zrotation
      JOINT LeftShoulder
      {
       OFFSET 13.519700 0.000000 0.000000
       CHANNELS 3 Yrotation Xrotation Zrotation
       JOINT LeftElbow
       {
        OFFSET 0.000000 -29.696600 0.000000
        CHANNELS 3 Yrotation Xrotation Zrotation
        JOINT LeftWrist
        {
         OFFSET 0.000000 -24.004700 0.000000
         CHANNELS 3 Yrotation Xrotation Zrotation
         End Site
         {
          OFFSET 0.000000 -17.728500 0.000000
         }
        }
       }
      }
     }
    }
   }
  }
 }
 JOINT RightHip
 {
  OFFSET -7.771700 -0.012900 -0.001300
  CHANNELS 3 Yrotation Xrotation Zrotation
  JOINT RightKnee
  {
   OFFSET 0.000000 -40.869800 0.001200
   CHANNELS 3 Yrotation Xrotation Zrotation
   JOINT RightAnkle
   {
    OFFSET 0.000000 -39.717900 0.002100
    CHANNELS 3 Yrotation Xrotation Zrotation
    JOINT RightToe
    {
     OFFSET 0.000000 -4.965400 11.033500
     CHANNELS 3 Yrotation Xrotation Zrotation
     End Site
     {
      OFFSET 0.000000 -1.423100 5.872300
     }
    }
   }
  }
 }
 JOINT LeftHip
 {
  OFFSET 7.771700 -0.012900 -0.001300
  CHANNELS 3 Yrotation Xrotation Zrotation
  JOINT LeftKnee
  {
   OFFSET 0.000000 -40.869800 0.001200
   CHANNELS 3 Yrotation Xrotation Zrotation
   JOINT LeftAnkle
   {
    OFFSET 0.000000 -39.717900 0.002100
    CHANNELS 3 Yrotation Xrotation Zrotation
    JOINT LeftToe
    {
     OFFSET 0.000000 -4.965400 11.033500
     CHANNELS 3 Yrotation Xrotation Zrotation
     End Site
     {
      OFFSET 0.000000 -1.423100 5.872300
     }
    }
   }
  }
 }
}
MOTION
Frames: 16
Frame Time: 0.008333
0.000000 85.388000 0.000000 0.000000 -5.767877 0.000000 0.000000 11.653817 0.000000 0.000000 -5.885947 0.000000 0.000000 -0.000000 0.000000 0.000000 -0.000000 0.000000 0.000000 12.528835 0.000000 0.000000 0.711642 0.000000 0.000000 -0.000000 0.000000 0.000000 0.000000 -90.000000 0.000000 -2.309062 0.000000 0.000000 2.309062 0.000000 0.000000 -0.000000 0.000000 0.000000 -0.000000 90.000000 0.000000 -2.309062 0.000000 0.000000 2.309062 0.000000 0.000000 8.520406 0.000000 0.000000 1.905762 0.000000 -0.000000 -4.658285 0.000000 0.000000 -0.000000 0.000000 0.000000 8.520406 0.000000 0.000000 1.905762 0.000000 -0.000000 -4.658285 0.000000 0.000000 -0.000000 0.000000
-17.540567 55.188517 27.250689 -175.095523 -33.215779 -11.249468 -3.115485 12.455411 6.465661 -1.861171 7.086958 2.702024 -2.278020 8.871574 3.347527 -1.861199 7.086957 2.702052 14.729943 24.262185 -2.871379 17.668377 2.049531 -6.669666 -0.392636 4.514979 -4.155832 -12.720325 -12.399260 5.649586 4.990690 -79.471945 13.664513 10.025257 -7.047805 -27.327089 -13.995026 -2.716139 -4.581937 3.478298 -21.394400 16.251887 58.245004 -61.946038 -44.437185 28.777697 -12.731901 8.311500 -19.969217 -33.579350 2.044324 11.319183 87.022925 6.251482 -0.400413 -17.070491 3.123788 -0.052643 0.460164 -0.055402 -14.762083 -44.895885 12.999548 169.374375 79.402391 163.702114 -2.029551 -16.104572 3.009009 -0.942124 -2.594082 -0.446423
-17.525182 55.186749 27.248681 -175.136945 -33.257757 -11.271851 -3.125090 12.490014 6.504062 -1.871545 7.103151 2.719742 -2.290534 8.891981 3.369421 -1.829439 7.081916 2.678372 14.726153 24.269742 -2.827571 17.698450 2.062925 -6.729268 -0.452080 4.514672 -4.105821 -12.607935 -12.472950 5.575839 4.445955 -79.436879 14.161655 9.975855 -6.959543 -27.339764 -14.171051 -2.638903 -4.507363 3.540421 -21.613026 16.350298 58.364651 -61.297179 -44.177672 28.687900 -12.788853 8.673535 -19.960858 -33.533721 2.078873 11.501212 87.020905 6.458375 -0.394021 -17.064091 3.093986 -0.053056 0.459031 -0.055461 -14.780315 -44.857922 13.029182 169.295574 79.376449 163.656161 -1.993883 -16.101018 2.969276 -0.958969 -2.609997 -0.455672
-17.511303 55.182271 27.249176 -175.162523 -33.284287 -11.282637 -3.159570 12.516380 6.520116 -1.844278 7.111750 2.725042 -2.342188 8.921570 3.405597 -1.861167 7.109210 2.715560 14.746152 24.271196 -2.884109 17.721112 2.073385 -6.766323 -0.457831 4.486585 -4.121507 -12.483623 -12.580560 5.543680 4.218148 -79.374762 14.337286 9.938901 -6.861223 -27.356565 -14.263109 -2.593872 -4.490990 3.618848 -21.775419 16.452791 58.463880 -60.720783 -43.967575 28.607404 -12.842698 8.901367 -19.971221 -33.510296 2.100827 11.853329 87.024791 6.825353 -0.391886 -17.062598 3.062476 -0.054133 0.462253 -0.048228 -14.804789 -44.840005 13.041816 169.210173 79.353669 163.592579 -1.954029 -16.092437 2.936191 -0.986217 -2.622906 -0.461869
-17.496392 55.176673 27.251055 -175.191263 -33.307518 -11.288410 -3.193621 12.546145 6.533034 -1.817833 7.114659 2.729720 -2.396796 8.961571 3.439598 -1.897191 7.140128 2.751385 14.757308 24.270318 -2.943418 17.729917 2.080659 -6.803150 -0.462316 4.454231 -4.136171 -12.361183 -12.687146 5.523244 4.189750 -79.332418 14.321207 9.922155 -6.759206 -27.383998 -14.329983 -2.543176 -4.469272 3.709411 -21.897110 16.551668 58.529249 -60.205441 -43.792267 28.529647 -12.893750 9.011221 -20.003908 -33.492522 2.146142 11.982865 87.031305 6.938213 -0.386606 -17.058499 3.038590 -0.055650 0.460637 -0.045372 -14.830101 -44.827272 13.056937 169.118731 79.330757 163.519181 -1.919634 -16.080461 2.904632 -1.001888 -2.639472 -0.476279
-17.478853 55.171324 27.253337 -175.228263 -33.336019 -11.297541 -3.184281 12.576723 6.557937 -1.865654 7.134243 2.749003 -2.412713 8.999270 3.454333 -1.911668 7.162832 2.765990 14.742775 24.270240 -2.977944 17.721460 2.081521 -6.839648 -0.496407 4.420958 -4.128997 -12.222430 -12.770416 5.464672 4.102142 -79.335858 14.361985 9.926862 -6.665099 -27.423138 -14.400002 -2.470511 -4.421978 3.806967 -21.989091 16.644539 58.562257 -59.745058 -43.648531 28.444634 -12.932178 9.028326 -20.011443 -33.467781 2.188224 12.034584 87.035962 6.994242 -0.378652 -17.055166 3.012459 -0.056699 0.461153 -0.043204 -14.854147 -44.807068 13.085562 169.032992 79.307995 163.452067 -1.892720 -16.071747 2.874102 -1.017619 -2.652835 -0.486022
-17.459138 55.167204 27.254992 -175.277404 -33.378109 -11.306330 -3.160384 12.620423 6.588140 -1.910899 7.162037 2.766292 -2.431165 9.040577 3.471926 -1.927468 7.189156 2.780055 14.714420 24.267695 -3.014803 17.696042 2.076907 -6.875486 -0.547000 4.364285 -4.126961 -12.065043 -12.844612 5.411305 4.141485 -79.355618 14.279071 9.949464 -6.586479 -27.471693 -14.454758 -2.390316 -4.371607 3.909299 -22.053649 16.727464 58.570786 -59.343683 -43.534814 28.348674 -12.944903 8.984123 -19.993810 -33.429562 2.216809 12.258129 87.036989 7.245140 -0.370683 -17.052849 2.988015 -0.055855 0.463417 -0.055500 -14.864578 -44.770727 13.126552 168.988566 79.287159 163.416277 -1.856785 -16.064834 2.859060 -1.045002 -2.668687 -0.501008
-17.440483 55.162907 27.257675 -175.310862 -33.416672 -11.310030 -3.179176 12.674799 6.601050 -1.985383 7.227395 2.800613 -2.398828 9.049601 3.469418 -1.945213 7.219033 2.794158 14.668693 24.262876 -3.056626 17.650096 2.066870 -6.912777 -0.614947 4.277900 -4.133705 -11.968655 -12.907091 5.498176 4.963005 -79.365655 13.485936 9.977288 -6.522585 -27.514327 -14.495456 -2.301565 -4.323530 4.015072 -22.091065 16.796295 58.560335 -59.005572 -43.451344 28.238137 -12.921849 8.898202 -20.005950 -33.398856 2.222030 13.122920 87.034351 8.141781 -0.371123 -17.051303 2.923533 -0.049112 0.463812 -0.055355 -14.870847 -44.736948 13.147250 168.941531 79.273352 163.378919 -1.826776 -16.064695 2.845385 -1.065249 -2.673173 -0.514648
-17.422044 55.158958 27.261188 -175.336269 -33.455089 -11.310093 -3.208404 12.735453 6.612984 -2.024044 7.277162 2.824399 -2.405523 9.079124 3.478530 -1.965579 7.252015 2.808674 14.601339 24.254743 -3.104979 17.578748 2.049485 -6.952243 -0.693990 4.166500 -4.147011 -11.816311 -12.944403 5.497989 5.369762 -79.405664 13.078995 10.000423 -6.469082 -27.533136 -14.518215 -2.200848 -4.281088 4.119148 -22.101418 16.849265 58.540140 -58.732402 -43.403106 28.109964 -12.860935 8.779654 -20.016941 -33.367606 2.249438 13.186848 87.040273 8.201958 -0.365255 -17.049985 2.899801 -0.050605 0.463386 -0.053761 -14.871735 -44.700284 13.150546 168.900063 79.267584 163.356973 -1.802547 -16.076207 2.807547 -1.074246 -2.662964 -0.509972
-17.403316 55.155440 27.265793 -175.356217 -33.492703 -11.308589 -3.240824 12.799488 6.624054 -2.049899 7.317991 2.840089 -2.434518 9.124299 3.495499 -1.989125 7.287957 2.822744 14.513056 24.242879 -3.157975 17.482303 2.024023 -6.991798 -0.773451 4.043475 -4.159305 -11.658175 -12.977993 5.488689 5.744410 -79.454349 12.710572 10.014373 -6.422393 -27.517350 -14.522369 -2.086218 -4.240972 4.221193 -22.083600 16.884679 58.518880 -58.522872 -43.395582 27.968336 -12.775263 8.635473 -20.021466 -33.338865 2.266471 13.234394 87.047144 8.253658 -0.358668 -17.047818 2.882820 -0.052425 0.461908 -0.058548 -14.865904 -44.662619 13.149710 168.907364 79.269998 163.384152 -1.786496 -16.092423 2.780253 -1.072654 -2.645742 -0.508581
-17.383194 55.151907 27.272609 -175.365227 -33.521542 -11.315542 -3.346164 12.901662 6.647019 -2.015983 7.326534 2.834979 -2.467668 9.172665 3.510107 -2.015968 7.326514 2.834961 14.406102 24.228686 -3.212223 17.362726 1.992405 -7.028062 -0.848459 3.929332 -4.165042 -11.502559 -13.027602 5.460561 6.070050 -79.483855 12.428968 10.018269 -6.400485 -27.499464 -14.512276 -1.954995 -4.200659 4.324187 -22.038580 16.907037 58.509096 -58.369192 -43.437196 27.815300 -12.681372 8.476981 -20.042122 -33.316369 2.281368 13.581932 87.050501 8.615808 -0.356069 -17.044133 2.850725 -0.052403 0.460745 -0.053009 -14.863275 -44.631928 13.146340 168.897963 79.277600 163.417770 -1.807377 -16.114981 2.740638 -1.035297 -2.615915 -0.499322
-17.364919 55.148378 27.280821 -175.375542 -33.549926 -11.306143 -3.394025 12.968624 6.652444 -2.045640 7.366963 2.844913 -2.504328 9.223464 3.521907 -2.045644 7.366958 2.844891 14.279896 24.213226 -3.266067 17.218936 1.955845 -7.058947 -0.919803 3.839209 -4.162914 -11.352996 -13.108281 5.402643 6.235582 -79.516435 12.319157 10.016536 -6.373284 -27.500295 -14.490442 -1.808566 -4.163953 4.422285 -21.961076 16.928647 58.540713 -58.261090 -43.548690 27.649153 -12.585924 8.321558 -20.053936 -33.304981 2.262977 14.131242 87.055362 9.196998 -0.346757 -17.039867 2.799907 -0.046410 0.458232 -0.059835 -14.864715 -44.604621 13.138242 168.856458 79.284596 163.387621 -1.797548 -16.122763 2.714381 -1.040971 -2.599532 -0.497261
-17.346234 55.145105 27.290770 -175.388289 -33.576993 -11.295085 -3.425715 13.025711 6.655768 -2.094593 7.419943 2.859608 -2.543762 9.276597 3.531300 -2.077502 7.409197 2.853015 14.129863 24.194275 -3.321009 17.045728 1.910851 -7.084992 -0.984247 3.771760 -4.151964 -11.215600 -13.219654 5.309219 6.219333 -79.580591 12.388257 10.046130 -6.314365 -27.448255 -14.454468 -1.653783 -4.134013 4.510849 -21.843547 16.954759 58.645178 -58.191773 -43.757193 27.471619 -12.488646 8.183148 -20.063928 -33.294686 2.266325 14.240784 87.063541 9.315845 -0.336592 -17.033892 2.771030 -0.046098 0.456489 -0.059778 -14.868487 -44.578728 13.142651 168.854595 79.293512 163.383027 -1.781531 -16.125380 2.699011 -1.056136 -2.587636 -0.497283
-17.327418 55.143714 27.300086 -175.399177 -33.620299 -11.286541 -3.424969 13.077661 6.653632 -2.180662 7.496345 2.885838 -2.586359 9.331993 3.538435 -2.111825 7.453287 2.859474 13.950506 24.169677 -3.379116 16.836947 1.853966 -7.107176 -1.040862 3.720872 -4.135460 -11.094616 -13.350664 5.185735 6.147773 -79.655129 12.526115 10.036488 -6.268818 -27.376770 -14.399895 -1.493254 -4.114674 4.591559 -21.690956 16.982907 58.825476 -58.155923 -44.063543 27.284727 -12.387078 8.060697 -20.059788 -33.266195 2.263042 14.402549 87.068458 9.492185 -0.338233 -17.028486 2.744727 -0.044833 0.457435 -0.050363 -14.883828 -44.534860 13.152218 168.846825 79.301313 163.361757 -1.759728 -16.116731 2.683559 -1.071417 -2.587345 -0.494612
-17.311078 55.140893 27.313124 -175.388764 -33.644715 -11.276472 -3.501038 13.152334 6.647859 -2.216779 7.541067 2.890226 -2.631326 9.388573 3.543341 -2.147998 7.498375 2.864176 13.736811 24.138457 -3.439402 16.586289 1.783293 -7.122990 -1.096149 3.684614 -4.120384 -10.992025 -13.487915 5.047340 6.089767 -79.746212 12.691326 10.092047 -6.188130 -27.302671 -14.332624 -1.326467 -4.109569 4.668978 -21.513257 17.012786 59.057095 -58.151278 -44.436131 27.093272 -12.276794 7.935855 -20.068643 -33.259473 2.254375 14.628860 87.075876 9.726973 -0.346288 -17.018898 2.721983 -0.041175 0.453499 -0.046572 -14.882530 -44.520146 13.122149 168.631581 79.306464 163.174411 -1.798734 -16.090624 2.647163 -1.047497 -2.588776 -0.484787
-17.293242 55.138073 27.329012 -175.397963 -33.664831 -11.270461 -3.607299 13.257336 6.665738 -2.199653 7.554325 2.873061 -2.675294 9.446043 3.545970 -2.183375 7.544139 2.867045 13.482565 24.096697 -3.499103 16.285554 1.692862 -7.127669 -1.155294 3.654544 -4.107523 -10.915320 -13.619162 4.909746 6.085294 -79.836013 12.816577 10.157402 -6.102730 -27.212197 -14.268479 -1.155879 -4.115019 4.751267 -21.319147 17.043762 59.305344 -58.179690 -44.839063 26.903710 -12.152179 7.790277 -20.069534 -33.255506 2.271393 14.755788 87.078595 9.859959 -0.355916 -17.004388 2.706246 -0.040631 0.450764 -0.047728 -14.892427 -44.506766 13.131233 168.547849 79.315000 163.092092 -1.792635 -16.070220 2.630327 -1.057770 -2.588407 -0.486312
